<svg fill="none" height="142" viewBox="0 0 499 142" width="499" xmlns="http://www.w3.org/2000/svg"><g fill="#1b16ce"><path d="m5.62956 98.7615c14.10574 33.4305 52.31824 51.7735 89.45114 39.1675 29.6293-12.601 48.0233-35.08 46.7213-74.5435h-57.4107c-7.3896.0001-13.376 5.8614-13.376 13.251.0002 7.3895 5.9903 13.5088 13.3799 13.5088h21.1108c-10.6508 19.1197-34.5731 27.3227-55.8384 15.5087-20.6627-10.061-26.4374-38.8523-14.33-57.2099 9.8896-14.9949 33.8597-25.6313 54.2207-13.5556 1.3734.8145 2.7273 1.6451 4.0654 2.4257l5.6953 3.7979c6.095 4.3446 14.611 3.4779 19.688-2.2481 5.434-6.1276 4.871-15.5-1.256-20.9335-.206-.1825-.411-.3586-.613-.5303l.135.0088-5.109-3.9737.021.0948c-18.3543-14.434694-49.4516-18.86115-75.5916-5.06449-30.9637 16.34269-45.41346 56.52129-30.96384 90.29589z"/><path d="m188.113 111.309h17.664c15.989 0 28.95 12.962 28.95 28.951-24.735 0-49.813 0-75.921 0 0-39.334 0-81.7818 0-123.0345 0-8.09291 5.787-14.6525 13.88-14.6525 8.093 0 15.427 6.55896 15.427 14.6519z"/><path d="m254.163 2.27026c1.285.00004 2.526.23537 3.704.65528 5.608 1.73287 9.764 6.71996 10.217 12.72946.101.625.154 1.24.154 1.8369v70.3457c0 1.4757.048 2.8985.153 4.2627v.0547c0 2.9329.601 5.725 1.687 8.26.922 2.434 2.236 4.505 4.044 6.152 3.819 4.04 9.225 6.561 15.22 6.561 6.324-.001 11.994-2.806 15.836-7.242 1.442-1.486 2.585-3.312 3.438-5.501.945-2.2153 1.521-4.626 1.649-7.1548.184-1.6679.276-3.464.276-5.3926.298-24.2746-.488-44.3131-.552-69.4257 0-.1167.003-.234.007-.3516-.019-.4508-.03-.9168-.03-1.3984 0-7.94812 6.443-14.39164 14.391-14.39164 7.948.00038 14.391 6.44375 14.391 14.39164 0 .2426-.003.4812-.008.7158.044.352.069.6972.073 1.0332.336 30.7749-.19 44.8884-.19 76.6592 0 24.7159-22.98 46.6389-49.679 46.6399-27.232 0-49.252-21.86-49.94-45.3558 0-28.7977-.199-54.0611-.199-78.8613.002-.5047.039-1.0221.106-1.5478.285-5.1719 3.312-9.62118 7.665-11.9473 1.808-1.07721 3.88-1.72749 6.158-1.72754z"/><path d="m362.388 43.164c14.106-33.43 52.319-51.77379 89.452-39.16699 29.628 12.60059 48.022 35.07979 46.721 74.54299h-57.411c-7.389-.0001-13.376-5.8614-13.376-13.251 0-7.3894 5.99-13.5088 13.38-13.5088h21.11c-10.65-19.1198-34.572-27.3231-55.838-15.5088-20.662 10.0611-26.437 38.8524-14.33 57.21 9.89 14.9946 33.86 25.6316 54.221 13.5556 1.374-.815 2.727-1.645 4.066-2.426l5.695-3.798c6.094-4.3441 14.611-3.4774 19.688 2.248 5.434 6.128 4.871 15.5-1.257 20.934-.205.183-.41.359-.612.53l.135-.008-5.109 3.973.021-.095c-18.354 14.435-49.452 18.862-75.592 5.065-30.963-16.343-45.413-56.5214-30.964-90.296z"/></g></svg>