<svg fill="none" height="335" viewBox="0 0 1305 335" width="1305" xmlns="http://www.w3.org/2000/svg" xmlns:xlink="http://www.w3.org/1999/xlink"><clipPath id="a"><path d="m0 0h1305v335h-1305z"/></clipPath><g clip-path="url(#a)"><path d="m331.536 176.363c0 97.752-68.358 157.907-157.907 157.907-101.17-.684-173.629-74.51-173.629-166.793 0-92.967 73.826-167.477 168.16-167.477 61.522 0 113.474 30.077 140.134 73.143l-62.206 36.23c-12.988-21.191-42.382-37.597-78.611-37.597-54.003 0-94.334 39.648-94.334 96.385 0 54.686 38.28 94.334 101.17 94.334 42.382 0 70.409-18.457 82.029-49.218h-86.131v-64.256h160.641v27.343zm973.414 8.887h-160.64v-64.256h85.45c-11.62-30.761-39.65-49.218-82.03-49.218-62.21 0-101.17 39.648-101.17 94.334 0 56.053 40.33 96.385 94.33 96.385 36.23 0 64.94-16.406 78.61-37.597l62.21 35.546c-27.34 43.065-78.61 73.143-140.13 73.143-94.34 0-168.164-74.51-168.164-167.477 0-92.283 72.454-166.10899292 172.944-166.10899292 89.55 0 157.91 59.47099292 157.91 157.90699292v27.343zm-712.287 71.775v70.409h-187.984v-320.598h73.143v250.19zm57.421-33.495v-216.694h73.143v210.542c0 24.609 11.621 45.116 50.585 45.116s50.585-20.507 50.585-45.116v-210.542h73.143v217.378c0 69.041-53.319 110.056-123.728 110.056s-123.728-41.698-123.728-110.74z" fill="#fff"/></g></svg>