<svg fill="none" height="78" viewBox="0 0 268 78" width="268" xmlns="http://www.w3.org/2000/svg"><g fill="#1b16ce"><path d="m64.219 10.5148c3.5379 3.3585 2.0328 9.0263-2.1566 11.5253-3.3564 2.002-7.444 1.2994-10.6996-.8627-12.1974-8.1005-25.1991-3.6963-31.5772 5.3766-7.2856 10.364-3.7856 25.864 7.5491 31.3831 11.6653 6.4809 24.1653 1.9809 30.0077-8.5075-3.4599 0-6.7878 0-10.1788 0-3.9677 0-7.1841-3.2873-7.1841-7.255 0-3.9676 3.2164-7.1132 7.184-7.1132h26.9756c3.3609 18.3566-5.6391 33.3566-21.8924 40.2687-21.2467 7.5879-41.3312-2.8358-49.06905-21.1741-7.92654-18.5274-.56618-40.2687 16.98545-49.53243 14.5494-8.00804 32.2233-5.341163 44.0559 5.89123z"/><path d="m257.219 67.4852c3.538-3.3585 2.033-9.0263-2.157-11.5253-3.356-2.002-7.444-1.2994-10.699.8627-12.198 8.1005-25.199 3.6963-31.577-5.3766-7.286-10.364-3.786-25.864 7.549-31.3831 11.665-6.4809 24.165-1.9809 30.007 8.5075-3.46 0-6.787 0-10.178 0-3.968 0-7.185 3.2873-7.185 7.255 0 3.9676 3.217 7.1132 7.185 7.1132h26.975c3.361-18.3566-5.639-33.35658-21.892-40.26875-21.247-7.58783-41.332 2.83583-49.069 21.17415-7.927 18.5274-.567 40.2687 16.985 49.5324 14.549 8.0081 32.223 5.3412 44.056-5.8912z"/><path d="m128.219 9.11302c.02-4.48035 3.511-8.11302 7.991-8.11302s8.254 3.63219 8.254 8.11258v38.77692c0 7.4946 2.264 12.491 10.565 12.6832 8.678.3843 12.64-3.2669 12.64-12.6832.159-12.8957.051-25.6561.013-38.9619-.013-4.27199 3.521-7.73543 7.793-7.73543s7.664 3.46326 7.718 7.73492c.205 16.44331.874 32.86721-.431 49.14741-1.132 12.8754-14.338 20.1779-29.431 19.0248-14.15-.9608-24.526-9.8006-24.903-22.676-.484-14.6034-.279-29.6271-.209-45.31028z"/><path d="m99.8823 60.6637h10.9037c8.42 0 15.244 6.8253 15.244 15.2448-13.544 0-27.2764 0-41.5732 0 0-21.6455 0-43.7571 0-66.19552 0-4.25962 3.0298-7.71298 7.2895-7.71298 4.2596 0 8.136 3.45271 8.136 7.71234z"/></g></svg>